<svg id="Layer_1" data-name="Layer 1" xmlns="http://www.w3.org/2000/svg" viewBox="0 0 100 100"><defs><style>.cls-1{fill:#24b4e1;}</style></defs><title>TBlogo_2016_RGB_blue</title><path class="cls-1" d="M57.37,89.6a111.9,111.9,0,0,1-15.9-1l0.18-1.26a110.52,110.52,0,0,0,15.72,1c12,0,20.17-1.87,25-5.71a16.58,16.58,0,0,0,6.47-13.21c0-7.46-4.63-13.18-12.37-15.3L76,54V52.88l0.41-.15c6.5-2.39,10.22-7.21,10.22-13.2a13.41,13.41,0,0,0-7.43-12.09,22.08,22.08,0,0,0-6.67-2.58,56.24,56.24,0,0,0-12.1-1V22.59a57.41,57.41,0,0,1,12.38,1,23.59,23.59,0,0,1,7,2.71,14.63,14.63,0,0,1,8.07,13.2c0,6.11-3.5,11.08-9.65,13.83C85.7,55.91,90.1,61.83,90.1,69.42a17.81,17.81,0,0,1-6.94,14.2C78.1,87.64,69.66,89.6,57.37,89.6Zm4.31-10.83a46.86,46.86,0,0,1-5.74-.2l-0.55-.07V59.1H61c8.75,0,13.76,3.55,13.76,9.74S70,78.77,61.68,78.77Zm-5-1.39c1.3,0.12,2.9.12,5,.12,3.55,0,11.82-.84,11.82-8.66,0-7.37-7.83-8.47-12.49-8.47H56.66v17Zm4.16-27.45H55.39V33.7l0.54-.08a40.2,40.2,0,0,1,6.33-.39c7.08,0,11,2.88,11,8.11S68.59,49.93,60.82,49.93Zm-4.16-1.27h4.16c7,0,11.15-2.74,11.15-7.32,0-5.65-5.28-6.84-9.72-6.84a42.2,42.2,0,0,0-5.59.3V48.66Z"/><polygon class="cls-1" points="59.28 22.6 59.28 22.6 41.74 22.6 41.74 74.66 28.41 74.66 28.41 22.6 11.15 22.6 11.15 11.66 59.27 11.66 59.28 11.66 60.54 11.66 60.54 11.65 60.54 10.4 9.9 10.4 9.9 23.86 27.15 23.86 27.15 75.92 43 75.92 43 23.86 60.54 23.86 60.54 22.6 59.28 22.6"/></svg>